<?xml version="1.0" encoding="utf-8"?>
<!-- Generator: Adobe Illustrator 23.0.6, SVG Export Plug-In . SVG Version: 6.00 Build 0)  -->
<svg version="1.1" id="Layer_3" xmlns="http://www.w3.org/2000/svg" xmlns:xlink="http://www.w3.org/1999/xlink" x="0px" y="0px"
	 viewBox="0 0 26 27" style="enable-background:new 0 0 26 27;" xml:space="preserve">
<style type="text/css">
	.st0{fill:#FFFFFF;}
	.st1{fill:#64A0FC;}
	.st2{fill:#FF9E02;}
	.st3{fill:#6745BF;}
</style>
<g>
	<polygon class="st0" points="15.9,18.1 15.9,18.1 14.2,15.8 	"/>
	<polygon class="st0" points="12.3,13.3 14.6,8 12.3,13.3 7.7,13.8 12.3,13.3 	"/>
	<path class="st1" d="M12.3,13.3L12.3,13.3L12.3,13.3l-4.6,0.5l-7.2,0.8C1,15.6,1.9,16.2,3,16.2l7.2,0l0,7.2c0,1.6,1.3,2.9,2.9,2.9
		s2.9-1.3,2.9-2.9l0-5.2l-1.7-2.3L12.3,13.3z"/>
	<path class="st2" d="M12.3,13.3L14.6,8l1.3-2.9l0-1.8c0-1.6-1.3-2.9-2.9-2.9s-2.9,1.3-2.9,2.9l0,7.2l-7.2,0c-1.6,0-2.9,1.3-2.9,2.9
		c0,0.5,0.1,1,0.4,1.4l7.2-0.8L12.3,13.3z"/>
	<polygon class="st0" points="7.7,13.8 0.5,14.7 0.5,14.7 	"/>
	<path class="st3" d="M12.3,13.3l1.9,2.5l1.7,2.3l0-1.9l7.2,0c1.6,0,2.9-1.3,2.9-2.9s-1.3-2.9-2.9-2.9l-7.2,0l0-5.3L14.6,8
		L12.3,13.3z"/>
	<polygon class="st3" points="14.2,15.8 12.3,13.3 12.3,13.3 	"/>
</g>
</svg>
