<svg id="Layer_3" data-name="Layer 3" xmlns="http://www.w3.org/2000/svg" xmlns:xlink="http://www.w3.org/1999/xlink" viewBox="0 0 26 27"><defs><clipPath id="clip-path"><path d="M13,.61a2.87,2.87,0,0,1,2.87,2.86v7.16H23a2.87,2.87,0,0,1,0,5.74H15.87v7.16a2.87,2.87,0,0,1-5.74,0V16.37H3a2.87,2.87,0,0,1,0-5.74h7.16V3.47A2.87,2.87,0,0,1,13,.61Z" style="fill:none;clip-rule:evenodd"/></clipPath><clipPath id="clip-path-2"><rect x="-11" y="-13" width="49" height="51" style="fill:none"/></clipPath><clipPath id="clip-path-3"><rect width="26" height="27" style="fill:none"/></clipPath><clipPath id="clip-path-4"><path d="M21.18-7.16,12.32,13.31-9.85,15.86A22.14,22.14,0,0,1-8.16,4.46,22.32,22.32,0,0,1,21.18-7.16Z" style="fill:none;clip-rule:evenodd"/></clipPath><clipPath id="clip-path-6"><path d="M32.82,22.2a22.28,22.28,0,0,1-7.18,9.06l-13.32-18L21.18-7.16h0A22.33,22.33,0,0,1,32.82,22.2Z" style="fill:none;clip-rule:evenodd"/></clipPath><clipPath id="clip-path-8"><path d="M25.64,31.26A22.33,22.33,0,0,1-9.85,15.86l22.17-2.55Z" style="fill:none;clip-rule:evenodd"/></clipPath></defs><title>Artboard 1</title><g style="clip-path:url(#clip-path)"><g style="isolation:isolate"><g style="clip-path:url(#clip-path-2)"><g style="clip-path:url(#clip-path-3)"><rect x="-4.89" y="-4.39" width="35.79" height="35.79"/></g><g style="clip-path:url(#clip-path-4)"><g style="clip-path:url(#clip-path-3)"><rect x="-15" y="-14" width="41.18" height="34.86" style="fill:#ff9e00"/></g></g><g style="clip-path:url(#clip-path-6)"><g style="clip-path:url(#clip-path-3)"><rect x="7.32" y="-12.16" width="32.34" height="48.42" style="fill:#6745bf"/></g></g><g style="clip-path:url(#clip-path-8)"><g style="clip-path:url(#clip-path-3)"><rect x="-14.85" y="8.31" width="45.49" height="32.35" style="fill:#63a1fc"/></g></g></g></g></g></svg>