<svg xmlns="http://www.w3.org/2000/svg" xmlns:xlink="http://www.w3.org/1999/xlink" viewBox="0 0 1024 1024"><defs><mask id="mask" x="23.71" y="24.73" width="975.15" height="975.15" maskUnits="userSpaceOnUse"><path d="M512.08,848.62c-54.23,0-106.35-5.48-150.73-15.84-52.67-12.3-91.73-30.83-116.1-55.07s-43.05-63.18-55.43-115.65C179.39,617.86,173.88,566,173.88,512s5.51-105.9,15.94-150.09c12.38-52.47,31-91.39,55.43-115.66s63.43-42.77,116.1-55.07c44.38-10.36,96.5-15.84,150.73-15.84s106.35,5.48,150.73,15.84c52.67,12.3,91.73,30.83,116.1,55.07S822,309.41,834.34,361.88C844.77,406.07,850.28,458,850.28,512s-5.51,105.89-15.94,150.09c-12.38,52.47-31,91.38-55.43,115.65h0c-24.37,24.24-63.43,42.77-116.1,55.07C618.43,843.14,566.31,848.62,512.08,848.62Zm0-592.31c-111.39,0-186.79,24.54-209.71,47.33S254.88,401.3,254.88,512s24.62,185.56,47.49,208.32,98.32,47.33,209.71,47.33,186.79-24.53,209.71-47.33h0c22.87-22.76,47.49-97.65,47.49-208.32S744.66,326.4,721.79,303.64,623.47,256.31,512.08,256.31Z" style="fill:#fff"/></mask></defs><title>tick_icon</title><g id="Layer_2" data-name="Layer 2"><g style="mask:url(#mask)"><path d="M704.59,64.82,511,511.81,26.9,567.64A485.28,485.28,0,0,1,64,318.56C170.92,71.67,457.65-41.86,704.59,64.82Z" style="fill:#ff9e00"/><path d="M958.57,706A485,485,0,0,1,801.86,903.76L511,511.81l193.61-447L705,65C952.05,172,1065.57,459,958.57,706Z" style="fill:#6745bf"/><path d="M801.86,903.76C666.62,1004,483.1,1031.32,317.54,959.6,151.81,887.82,46.17,735,26.9,567.64L511,511.81Z" style="fill:#63a1fc"/></g><rect x="358.16" y="495.41" width="183.04" height="76.56" rx="38.28" transform="translate(509.08 -161.65) rotate(45)" style="fill:#6745bf"/><rect x="423.19" y="470.65" width="253.06" height="76.56" rx="38.28" transform="translate(-198.86 537.78) rotate(-45)" style="fill:#6745bf"/></g></svg>